<mxfile host="app.diagrams.net" modified="2024-01-03T15:46:51.692Z" agent="Mozilla/5.0 (Macintosh; Intel Mac OS X 10_15_7) AppleWebKit/537.36 (KHTML, like Gecko) Chrome/120.0.0.0 Safari/537.36" etag="Tx0WNeXC16F-St-oEEx-" version="22.1.16" type="device">
  <diagram name="Page-1" id="7e0a89b8-554c-2b80-1dc8-d5c74ca68de4">
    <mxGraphModel dx="589" dy="381" grid="1" gridSize="10" guides="1" tooltips="1" connect="1" arrows="1" fold="1" page="1" pageScale="1" pageWidth="1100" pageHeight="850" background="none" math="0" shadow="0">
      <root>
        <mxCell id="0" />
        <mxCell id="1" parent="0" />
        <mxCell id="pRYH7PfjmrUMCHFATJnz-17" value="" style="ellipse;whiteSpace=wrap;html=1;aspect=fixed;" vertex="1" parent="1">
          <mxGeometry x="164" y="415" width="50" height="50" as="geometry" />
        </mxCell>
        <mxCell id="pRYH7PfjmrUMCHFATJnz-1" value="" style="ellipse;" vertex="1" parent="1">
          <mxGeometry x="174" y="425" width="30" height="30" as="geometry" />
        </mxCell>
        <mxCell id="pRYH7PfjmrUMCHFATJnz-26" style="edgeStyle=orthogonalEdgeStyle;rounded=0;orthogonalLoop=1;jettySize=auto;html=1;exitX=0;exitY=0.5;exitDx=0;exitDy=0;exitPerimeter=0;entryX=1;entryY=0.5;entryDx=0;entryDy=0;endArrow=none;endFill=0;" edge="1" parent="1" source="pRYH7PfjmrUMCHFATJnz-5" target="pRYH7PfjmrUMCHFATJnz-1">
          <mxGeometry relative="1" as="geometry" />
        </mxCell>
        <mxCell id="pRYH7PfjmrUMCHFATJnz-5" value="104&amp;nbsp;&lt;b&gt;Ω&lt;/b&gt;" style="verticalLabelPosition=bottom;shadow=0;dashed=0;align=center;html=1;verticalAlign=top;strokeWidth=1;shape=mxgraph.electrical.resistors.resistor_2;rounded=1;comic=0;labelBackgroundColor=none;fontFamily=Verdana;fontSize=12" vertex="1" parent="1">
          <mxGeometry x="240" y="400" width="80" height="20" as="geometry" />
        </mxCell>
        <mxCell id="pRYH7PfjmrUMCHFATJnz-6" value="514&amp;nbsp;&lt;b&gt;Ω&lt;/b&gt;" style="verticalLabelPosition=bottom;shadow=0;dashed=0;align=center;html=1;verticalAlign=top;strokeWidth=1;shape=mxgraph.electrical.resistors.resistor_2;rounded=1;comic=0;labelBackgroundColor=none;fontFamily=Verdana;fontSize=12" vertex="1" parent="1">
          <mxGeometry x="442" y="400" width="78" height="20" as="geometry" />
        </mxCell>
        <mxCell id="pRYH7PfjmrUMCHFATJnz-7" value="104&amp;nbsp;&lt;b&gt;Ω&lt;/b&gt;" style="verticalLabelPosition=bottom;shadow=0;dashed=0;align=center;html=1;verticalAlign=top;strokeWidth=1;shape=mxgraph.electrical.resistors.resistor_2;rounded=1;comic=0;labelBackgroundColor=none;fontFamily=Verdana;fontSize=12" vertex="1" parent="1">
          <mxGeometry x="345" y="400" width="75" height="20" as="geometry" />
        </mxCell>
        <mxCell id="pRYH7PfjmrUMCHFATJnz-10" style="edgeStyle=orthogonalEdgeStyle;rounded=0;orthogonalLoop=1;jettySize=auto;html=1;exitX=1;exitY=0.5;exitDx=0;exitDy=0;exitPerimeter=0;entryX=0;entryY=0.5;entryDx=0;entryDy=0;entryPerimeter=0;endArrow=none;endFill=0;" edge="1" parent="1" source="pRYH7PfjmrUMCHFATJnz-5" target="pRYH7PfjmrUMCHFATJnz-7">
          <mxGeometry relative="1" as="geometry" />
        </mxCell>
        <mxCell id="pRYH7PfjmrUMCHFATJnz-12" style="edgeStyle=orthogonalEdgeStyle;rounded=0;orthogonalLoop=1;jettySize=auto;html=1;entryX=0;entryY=0.5;entryDx=0;entryDy=0;entryPerimeter=0;endArrow=none;endFill=0;" edge="1" parent="1" source="pRYH7PfjmrUMCHFATJnz-7" target="pRYH7PfjmrUMCHFATJnz-6">
          <mxGeometry relative="1" as="geometry" />
        </mxCell>
        <mxCell id="pRYH7PfjmrUMCHFATJnz-30" style="edgeStyle=orthogonalEdgeStyle;rounded=0;orthogonalLoop=1;jettySize=auto;html=1;exitX=0;exitY=0.5;exitDx=0;exitDy=0;entryX=0;entryY=0.5;entryDx=0;entryDy=0;endArrow=none;endFill=0;" edge="1" parent="1" source="pRYH7PfjmrUMCHFATJnz-20" target="pRYH7PfjmrUMCHFATJnz-17">
          <mxGeometry relative="1" as="geometry" />
        </mxCell>
        <mxCell id="pRYH7PfjmrUMCHFATJnz-31" style="edgeStyle=orthogonalEdgeStyle;rounded=0;orthogonalLoop=1;jettySize=auto;html=1;exitX=0.5;exitY=0;exitDx=0;exitDy=0;entryX=0.5;entryY=0;entryDx=0;entryDy=0;endArrow=none;endFill=0;" edge="1" parent="1" source="pRYH7PfjmrUMCHFATJnz-20" target="pRYH7PfjmrUMCHFATJnz-23">
          <mxGeometry relative="1" as="geometry" />
        </mxCell>
        <mxCell id="pRYH7PfjmrUMCHFATJnz-20" value="" style="ellipse;whiteSpace=wrap;html=1;aspect=fixed;" vertex="1" parent="1">
          <mxGeometry x="164" y="260" width="50" height="50" as="geometry" />
        </mxCell>
        <mxCell id="pRYH7PfjmrUMCHFATJnz-21" value="" style="ellipse;" vertex="1" parent="1">
          <mxGeometry x="174" y="270" width="30" height="30" as="geometry" />
        </mxCell>
        <mxCell id="pRYH7PfjmrUMCHFATJnz-23" value="" style="ellipse;whiteSpace=wrap;html=1;aspect=fixed;" vertex="1" parent="1">
          <mxGeometry x="560" y="415" width="50" height="50" as="geometry" />
        </mxCell>
        <mxCell id="pRYH7PfjmrUMCHFATJnz-24" value="" style="ellipse;" vertex="1" parent="1">
          <mxGeometry x="570" y="425" width="30" height="30" as="geometry" />
        </mxCell>
        <mxCell id="pRYH7PfjmrUMCHFATJnz-25" style="edgeStyle=orthogonalEdgeStyle;rounded=0;orthogonalLoop=1;jettySize=auto;html=1;exitX=1;exitY=0.5;exitDx=0;exitDy=0;exitPerimeter=0;entryX=0;entryY=0.5;entryDx=0;entryDy=0;endArrow=none;endFill=0;" edge="1" parent="1" source="pRYH7PfjmrUMCHFATJnz-6" target="pRYH7PfjmrUMCHFATJnz-24">
          <mxGeometry relative="1" as="geometry">
            <Array as="points">
              <mxPoint x="545" y="410" />
              <mxPoint x="545" y="440" />
            </Array>
          </mxGeometry>
        </mxCell>
        <mxCell id="pRYH7PfjmrUMCHFATJnz-29" style="edgeStyle=orthogonalEdgeStyle;rounded=0;orthogonalLoop=1;jettySize=auto;html=1;exitX=0.5;exitY=0;exitDx=0;exitDy=0;entryX=0.5;entryY=1;entryDx=0;entryDy=0;endArrow=none;endFill=0;" edge="1" parent="1" source="pRYH7PfjmrUMCHFATJnz-1" target="pRYH7PfjmrUMCHFATJnz-21">
          <mxGeometry relative="1" as="geometry" />
        </mxCell>
      </root>
    </mxGraphModel>
  </diagram>
</mxfile>
